<svg xmlns="http://www.w3.org/2000/svg" viewBox="0 0 554.68 554.68"><defs><style>.cls-1{fill:#96281b;}.cls-2{fill:#fff;}</style></defs><g id="Camada_2" data-name="Camada 2"><g id="Camada_1-2" data-name="Camada 1"><rect class="cls-1" width="554.68" height="554.68" rx="53.54"/><path class="cls-2" d="M468.45,336.8H456.22V278.15c0-16.43-2.21-23.06-13.43-32.29L387.62,191a45.46,45.46,0,0,0-32.08-13.23H337v-29a30.63,30.63,0,0,0-30.63-30.63H109.22A30.63,30.63,0,0,0,78.59,148.8V345.92a30.63,30.63,0,0,0,30.63,30.63h8a59.95,59.95,0,1,0,119.89,0h79.15a59.95,59.95,0,1,0,119.89,0h32.33a7.64,7.64,0,0,0,7.64-7.64V344.44A7.64,7.64,0,0,0,468.45,336.8Zm-291.3,71a31.25,31.25,0,1,1,31.22-31.25A31.28,31.28,0,0,1,177.15,407.8ZM337,207.61h27.61l61.83,61.83v8.84H337Zm39.2,200.19a31.25,31.25,0,1,1,31.25-31.25A31.27,31.27,0,0,1,376.16,407.8Z"/><path class="cls-2" d="M485.46,21.68A47.6,47.6,0,0,1,533,69.22V485.46A47.6,47.6,0,0,1,485.46,533H69.22a47.6,47.6,0,0,1-47.54-47.54V69.22A47.6,47.6,0,0,1,69.22,21.68H485.46m0-6H69.22A53.54,53.54,0,0,0,15.68,69.22V485.46A53.54,53.54,0,0,0,69.22,539H485.46A53.54,53.54,0,0,0,539,485.46V69.22a53.54,53.54,0,0,0-53.54-53.54Z"/></g></g></svg>